<svg xmlns="http://www.w3.org/2000/svg" width="512" height="512" viewBox="0 0 512 512" version="1.1">
	<path d="M 224.500 6.822 C 223.400 7.040, 219.665 9.232, 216.201 11.694 C 210.955 15.423, 207.780 16.731, 197.201 19.523 C 178.402 24.485, 168.283 28.262, 150.500 36.954 C 127.800 48.048, 109.585 60.355, 92.091 76.416 C 48.090 116.814, 21.432 168.302, 12.832 229.500 C 11.185 241.216, 11.212 277.830, 12.876 290 C 23.544 368.037, 66.881 433.956, 133.294 473.165 C 140.007 477.129, 145.832 480.642, 146.237 480.973 C 146.875 481.493, 144.777 496.566, 143.438 501.089 C 143.017 502.511, 146.807 502.747, 179.734 503.350 C 201.851 503.755, 220.883 504.596, 227.500 505.461 C 233.550 506.251, 241.988 507.042, 246.250 507.218 C 253.437 507.516, 254.007 507.392, 254.100 505.519 C 254.183 503.823, 254.327 503.900, 255 506 C 255.534 507.667, 255.834 507.917, 255.900 506.750 C 255.992 505.140, 257.859 504.991, 279.250 504.883 C 292.038 504.819, 319.328 504.866, 339.896 504.987 L 377.291 505.207 376.606 501.853 C 376.230 500.009, 375.685 496.475, 375.395 494 L 374.869 489.500 378.352 493.321 C 380.268 495.423, 382.224 498.798, 382.700 500.821 C 383.531 504.354, 383.753 504.512, 388.283 504.805 L 393 505.110 392.969 499.805 C 392.894 486.820, 389.407 469.200, 384.993 459.500 C 380.773 450.225, 373.599 444.538, 369.134 446.928 C 366.798 448.179, 366.590 447.411, 361.976 420.500 C 360.279 410.600, 358.273 399.350, 357.517 395.500 C 356.204 388.800, 356.234 388.405, 358.222 386.277 C 359.364 385.054, 361.803 383.029, 363.643 381.777 C 365.482 380.524, 366.989 379.265, 366.993 378.977 C 366.997 378.690, 365.414 377.601, 363.476 376.557 C 359.970 374.669, 359.937 374.670, 356.976 376.860 C 355.339 378.070, 354 378.861, 354 378.618 C 354 378.375, 353.325 374.649, 352.500 370.338 C 351.675 366.027, 351 361.917, 351 361.205 C 351 360.492, 353.776 362.155, 357.168 364.900 C 371.956 376.866, 388.105 380.466, 392.857 372.858 C 393.994 371.036, 393.748 370.005, 390.901 364.662 C 388.259 359.707, 387.559 357.095, 387.198 350.858 C 386.764 343.369, 386.619 343.001, 381.727 336.954 L 376.700 330.742 363.680 343.868 C 356.519 351.087, 350.559 356.882, 350.435 356.747 C 350.151 356.436, 344.047 323.948, 340.054 301.500 C 338.391 292.150, 336.347 280.900, 335.511 276.500 C 334.674 272.100, 332.831 262.200, 331.414 254.500 C 329.996 246.800, 328.191 237.125, 327.401 233 C 325.603 223.613, 319.202 187.343, 317.342 176 C 313.783 154.306, 313.337 150.462, 314.243 149.290 C 314.827 148.535, 314.793 146.278, 314.152 143.290 C 313.187 138.791, 313.288 138.321, 315.812 135.554 C 317.291 133.933, 318.962 132.089, 319.526 131.456 C 320.091 130.823, 321.342 120.478, 322.307 108.467 C 323.272 96.457, 324.537 86.058, 325.117 85.359 C 325.896 84.420, 325.164 82.700, 322.321 78.794 C 320.203 75.882, 316.227 70.401, 313.485 66.614 C 299.099 46.741, 292.854 38.224, 290.788 35.653 C 289.530 34.088, 287.600 31.163, 286.500 29.153 C 284.613 25.706, 283.697 25.227, 270.250 20.648 C 257.943 16.457, 255.990 15.502, 255.930 13.648 C 255.861 11.561, 255.835 11.557, 255 13.500 C 254.346 15.021, 254.124 15.113, 254.070 13.884 C 254.015 12.615, 252.552 12.162, 247.250 11.772 C 243.537 11.498, 237.350 10.183, 233.500 8.850 C 229.650 7.516, 225.600 6.604, 224.500 6.822 M 227.174 12.654 C 227.353 13.579, 228.512 14.409, 229.750 14.500 C 232.756 14.721, 232.600 13.594, 229.424 12.147 C 227.189 11.129, 226.891 11.196, 227.174 12.654 M 191.230 30.255 C 188.121 33.565, 188.428 35.435, 191.598 32.497 C 193.027 31.172, 194.031 29.592, 193.828 28.985 C 193.622 28.367, 192.479 28.925, 191.230 30.255 M 261.055 36.898 C 259.585 39.643, 260.444 46.728, 262.525 49.027 C 264.080 50.746, 264.106 51, 262.722 51 C 259.956 51, 259.885 54.491, 262.528 60.467 C 265.607 67.430, 267.909 76.912, 268.212 83.884 C 268.335 86.698, 268.787 89, 269.217 89 C 269.648 89, 270.900 89.900, 272 91 C 274.614 93.614, 275.973 93.531, 276.115 90.750 C 276.179 89.513, 276.335 88.050, 276.463 87.500 C 276.591 86.950, 276.778 85.825, 276.879 85 C 277.274 81.789, 280.101 87.499, 279.811 90.920 C 279.636 92.979, 280.014 94.505, 280.760 94.753 C 281.442 94.981, 282 94.468, 282 93.615 C 282 92.693, 282.570 92.282, 283.405 92.602 C 284.824 93.146, 285.082 92.420, 286.605 83.600 C 287.266 79.774, 287.148 79.579, 280.389 73.354 C 276.600 69.864, 273.232 67.007, 272.903 67.005 C 271.934 66.997, 265 59.984, 265 59.011 C 265 57.008, 267.127 57.034, 269.884 59.072 C 271.493 60.262, 273.303 60.931, 273.905 60.559 C 274.519 60.179, 275 60.566, 275 61.441 C 275 62.298, 275.788 63.038, 276.750 63.083 C 281.554 63.312, 283.393 63.816, 284.399 65.181 C 285.803 67.085, 289.561 69.106, 290.308 68.358 C 290.622 68.044, 290.006 66.849, 288.938 65.703 C 287.871 64.557, 287.403 63.368, 287.899 63.060 C 288.395 62.752, 287.281 61.375, 285.423 60 C 283.565 58.625, 282.226 56.989, 282.447 56.365 C 282.668 55.740, 282.182 54.277, 281.367 53.113 C 280.551 51.949, 280.207 50.435, 280.602 49.748 C 280.997 49.062, 280.952 48.834, 280.502 49.241 C 279.265 50.362, 277.002 48.038, 276.985 45.628 C 276.974 44.101, 276.733 43.872, 276.134 44.817 C 275.528 45.773, 274.945 45.282, 274.011 43.027 C 271.668 37.371, 269.143 35, 265.463 35 C 263.155 35, 261.746 35.607, 261.055 36.898 M 193.232 43 C 193.232 44.925, 193.438 45.712, 193.689 44.750 C 193.941 43.788, 193.941 42.212, 193.689 41.250 C 193.438 40.288, 193.232 41.075, 193.232 43 M 195.195 59.500 C 195.215 61.150, 195.439 61.704, 195.693 60.731 C 195.947 59.758, 195.930 58.408, 195.656 57.731 C 195.382 57.054, 195.175 57.850, 195.195 59.500 M 255.361 59.697 C 254.934 61.400, 255.111 62.537, 255.842 62.781 C 257.945 63.482, 257.048 65.859, 254 67.659 C 252.350 68.634, 251 69.750, 251 70.139 C 251 70.737, 257.248 79.463, 258.777 81 C 259.050 81.275, 259.475 80.938, 259.720 80.250 C 259.966 79.563, 260.804 79, 261.583 79 C 263.290 79, 263.488 81.671, 261.823 82.226 C 260.282 82.739, 261.697 85, 263.559 85 C 265.278 85, 265.317 84.168, 263.957 76.434 C 262.509 68.200, 258.378 57.037, 256.769 57.011 C 256.367 57.005, 255.733 58.214, 255.361 59.697 M 196.232 67 C 196.232 68.925, 196.438 69.713, 196.689 68.750 C 196.941 67.787, 196.941 66.213, 196.689 65.250 C 196.438 64.287, 196.232 65.075, 196.232 67 M 292.500 69 C 292.160 69.550, 292.359 70, 292.941 70 C 293.523 70, 294 69.550, 294 69 C 294 68.450, 293.802 68, 293.559 68 C 293.316 68, 292.840 68.450, 292.500 69 M 282.072 70.750 C 282.112 71.162, 283.725 72.815, 285.657 74.422 C 288.524 76.808, 289.334 77.084, 290.069 75.922 C 291.380 73.851, 291.287 73.670, 287.913 71.750 C 284.714 69.930, 281.948 69.456, 282.072 70.750 M 197.252 74.500 C 197.263 76.700, 197.468 77.482, 197.707 76.238 C 197.946 74.994, 197.937 73.194, 197.687 72.238 C 197.437 71.282, 197.241 72.300, 197.252 74.500 M 293.267 76.250 C 292.729 76.938, 292.041 78.513, 291.738 79.750 C 291.288 81.589, 291.606 82, 293.477 82 C 295.128 82, 295.901 81.300, 296.246 79.491 C 296.635 77.461, 296.466 77.198, 295.363 78.114 C 293.683 79.508, 293.543 77.857, 295.200 76.200 C 295.982 75.418, 296.024 75, 295.322 75 C 294.730 75, 293.805 75.563, 293.267 76.250 M 209.158 79 C 209.158 80.375, 209.385 80.938, 209.662 80.250 C 209.940 79.563, 209.940 78.438, 209.662 77.750 C 209.385 77.063, 209.158 77.625, 209.158 79 M 198.829 86.500 C 199.194 90.900, 199.434 96.504, 199.362 98.953 C 199.251 102.680, 199.429 103.134, 200.448 101.741 C 201.406 100.430, 201.394 98.309, 200.394 91.788 C 198.416 78.896, 198.112 77.867, 198.829 86.500 M 209 83.469 C 209 84.361, 209.587 84.712, 210.494 84.364 C 211.316 84.048, 211.740 83.388, 211.435 82.895 C 210.563 81.483, 209 81.851, 209 83.469 M 296.500 84 C 296.840 84.550, 297.316 85, 297.559 85 C 297.802 85, 298 84.550, 298 84 C 298 83.450, 297.523 83, 296.941 83 C 296.359 83, 296.160 83.450, 296.500 84 M 290.763 85.734 C 289.961 87.370, 289.893 93, 290.675 92.992 C 291.129 92.988, 292.020 91.863, 292.656 90.492 C 293.337 89.023, 293.416 88, 292.847 88 C 292.316 88, 292.141 87.581, 292.457 87.069 C 292.774 86.557, 292.606 85.875, 292.085 85.553 C 291.564 85.231, 290.969 85.312, 290.763 85.734 M 277.083 99.370 C 278.320 100.469, 286.973 103.765, 286.465 102.943 C 285.811 101.886, 279.405 99, 277.711 99 C 277.137 99, 276.854 99.167, 277.083 99.370 M 205.183 111.217 C 203.783 112.617, 203.638 114, 204.893 114 C 205.809 114, 207.318 110.984, 206.707 110.374 C 206.520 110.186, 205.834 110.566, 205.183 111.217 M 279 113.107 C 279 114.650, 279.440 115.045, 280.641 114.584 C 281.985 114.068, 282.063 114.219, 281.072 115.413 C 280.121 116.559, 280.141 117.369, 281.165 119.186 C 282.429 121.430, 282.485 121.379, 283.028 117.500 C 283.427 114.647, 283.162 113.142, 282.103 112.250 C 279.956 110.443, 279 110.707, 279 113.107 M 272 115.059 C 272 115.641, 272.450 115.840, 273 115.500 C 273.550 115.160, 274 114.684, 274 114.441 C 274 114.198, 273.550 114, 273 114 C 272.450 114, 272 114.477, 272 115.059 M 284.551 118.663 C 284.668 121.353, 287.289 124.045, 288.556 122.777 C 289.599 121.734, 287.477 116.528, 285.883 116.218 C 284.879 116.023, 284.468 116.777, 284.551 118.663 M 292.791 124.970 C 292.434 127.400, 292.708 128, 294.173 128 C 296.316 128, 296.487 126.226, 294.586 123.720 C 293.347 122.087, 293.199 122.190, 292.791 124.970 M 276 127 C 276 127.550, 276.477 128, 277.059 128 C 277.641 128, 277.840 127.550, 277.500 127 C 277.160 126.450, 276.684 126, 276.441 126 C 276.198 126, 276 126.450, 276 127 M 282.667 128.667 C 280.715 130.618, 285.120 132.592, 287.925 131.022 C 289.221 130.297, 289.001 129.951, 286.685 129.070 C 283.360 127.806, 283.512 127.821, 282.667 128.667 M 293.211 132.605 C 292.151 133.751, 292.186 134, 293.402 134 C 295.100 134, 296.410 132.367, 295.266 131.674 C 294.845 131.419, 293.920 131.838, 293.211 132.605 M 289 136.059 C 289 136.641, 289.450 136.840, 290 136.500 C 290.550 136.160, 291 135.684, 291 135.441 C 291 135.198, 290.550 135, 290 135 C 289.450 135, 289 135.477, 289 136.059 M 282.500 148 C 282.840 148.550, 283.316 149, 283.559 149 C 283.802 149, 284 148.550, 284 148 C 284 147.450, 283.523 147, 282.941 147 C 282.359 147, 282.160 147.450, 282.500 148 M 197.079 192.583 C 197.127 193.748, 197.364 193.985, 197.683 193.188 C 197.972 192.466, 197.936 191.603, 197.604 191.271 C 197.272 190.939, 197.036 191.529, 197.079 192.583 M 191.693 223.250 C 189.118 238.238, 181.555 281.775, 174.886 320 C 164.275 380.827, 162.057 395.946, 161.945 408.250 C 161.931 409.762, 161.539 411, 161.073 411 C 160.608 411, 159.983 412.238, 159.686 413.750 C 159.388 415.262, 157.777 423.250, 156.105 431.500 C 152.568 448.959, 152.564 449, 154.409 449 C 155.387 449, 156.168 446.779, 156.961 441.750 C 157.590 437.762, 158.638 432.025, 159.290 429 C 159.942 425.975, 160.497 422.824, 160.525 421.999 C 160.552 421.173, 160.846 420.048, 161.178 419.499 C 161.987 418.159, 166.511 390.280, 170.022 365 C 171.129 357.025, 172.697 347.125, 173.506 343 C 174.314 338.875, 175.668 330.775, 176.513 325 C 177.358 319.225, 178.711 311.270, 179.519 307.323 C 180.326 303.375, 182.134 292.350, 183.537 282.823 C 186.478 262.836, 186.574 262.235, 191.849 231 C 194.032 218.075, 196.116 204.912, 196.481 201.750 C 197.905 189.397, 196.173 197.177, 191.693 223.250 M 406.500 329.845 C 404.300 330.896, 401.060 333.273, 399.301 335.128 C 396.193 338.404, 392.410 345.744, 393.347 346.681 C 393.949 347.282, 437.254 347.079, 437.861 346.472 C 438.115 346.218, 437.005 343.436, 435.396 340.289 C 431.473 332.618, 425.395 328.719, 416.644 328.258 C 412.139 328.021, 409.433 328.444, 406.500 329.845 M 449.174 337.561 C 444.149 344.071, 443.999 344.454, 443.978 350.882 C 443.956 357.616, 441.708 364.455, 438.268 368.256 C 436.766 369.916, 436.796 370.251, 438.669 372.774 C 444.582 380.742, 461.487 376.287, 476.294 362.859 L 481.500 358.138 467.924 344.498 L 454.349 330.858 449.174 337.561 M 393.960 356.861 C 395.175 361.097, 396.469 363.148, 400.168 366.699 C 403.240 369.649, 409.516 373, 411.968 373 C 412.605 373, 413 369.364, 413 363.500 L 413 354 403.070 354 L 393.140 354 393.960 356.861 M 419 363.567 C 419 373.021, 419.027 373.127, 421.250 372.464 C 426.459 370.909, 432.058 366.753, 434.370 362.723 C 435.702 360.401, 437.094 357.488, 437.464 356.250 C 438.127 354.027, 438.021 354, 428.567 354 L 419 354 419 363.567 M 396.708 377.675 C 395.179 379.425, 392.130 381.457, 389.932 382.189 L 385.937 383.521 389.002 387.688 C 399.930 402.547, 422.580 404.842, 437.420 392.595 C 439.664 390.743, 442.291 387.863, 443.258 386.195 L 445.017 383.163 441.991 382.498 C 440.327 382.133, 437.307 380.269, 435.279 378.357 L 431.593 374.880 427.579 376.690 C 421.800 379.296, 408.883 379.192, 403.494 376.496 L 399.488 374.492 396.708 377.675 M 467.278 377.097 L 464.057 379.160 468.749 382.742 C 471.330 384.712, 474.130 387.147, 474.971 388.154 C 476.447 389.920, 476.618 389.908, 479.876 387.814 L 483.252 385.644 477.714 380.322 C 474.668 377.395, 471.799 375.008, 471.338 375.017 C 470.877 375.026, 469.050 375.962, 467.278 377.097 M 333.500 384.720 C 332.400 387.312, 331.350 389.786, 331.167 390.217 C 330.983 390.647, 331.327 391, 331.931 391 C 333.484 391, 336.992 384.940, 336.996 382.250 C 337.002 378.676, 335.664 379.622, 333.500 384.720 M 481.731 394.374 C 475.785 399.884, 471.274 414.244, 470.302 430.750 L 469.699 441 486.790 441 C 496.191 441, 504.064 440.663, 504.287 440.250 C 505.013 438.907, 503.076 420.139, 501.518 413.420 C 499.639 405.320, 495.382 396.446, 492.159 393.910 C 488.874 391.326, 484.825 391.506, 481.731 394.374 M 403.399 408.447 C 399.758 413.646, 403.608 422.469, 410.580 424.899 C 416.195 426.857, 421.539 425.661, 425.679 421.521 C 429.252 417.948, 430.049 413.397, 427.920 408.723 C 426.876 406.433, 426.465 406.354, 415.819 406.401 C 405.967 406.444, 404.651 406.661, 403.399 408.447 M 393.500 423.199 C 388.528 426.738, 382.992 432.247, 379.811 436.820 C 378.159 439.196, 376.963 441.245, 377.154 441.373 C 382.651 445.061, 383.278 445.255, 384.228 443.558 C 386.917 438.753, 394.192 431.648, 399.157 428.977 L 401.988 427.455 399.744 424.245 C 398.510 422.479, 397.275 421.041, 397 421.049 C 396.725 421.057, 395.150 422.024, 393.500 423.199 M 431.254 424.870 L 429.133 427.739 431.752 428.933 C 437.376 431.495, 442.886 437.013, 447.626 444.830 C 447.783 445.089, 450.838 443.391, 453.846 441.373 C 454.037 441.245, 452.841 439.196, 451.189 436.820 C 446.612 430.239, 437.316 422, 434.466 422 C 433.866 422, 432.421 423.291, 431.254 424.870 M 456.430 447.487 C 454.818 448.179, 452.516 449.815, 451.313 451.123 C 445.245 457.719, 439.922 476.221, 438.474 495.750 L 437.788 505 442.686 505 L 447.585 505 448.757 500.619 C 451.160 491.635, 459.115 485.790, 468.906 485.814 C 471.983 485.821, 475.738 486.305, 477.250 486.889 C 478.762 487.473, 480 487.695, 480 487.382 C 480 487.070, 479.081 482.304, 477.957 476.791 C 473.651 455.658, 464.959 443.826, 456.430 447.487 M 476 449.600 C 476 453.703, 481.914 459, 486.496 459 C 492.884 459, 498 454.532, 498 448.953 C 498 447.134, 497.245 447, 487 447 L 476 447 476 449.600 M 351.310 479.500 C 351.315 482.800, 351.502 484.029, 351.725 482.232 C 351.947 480.435, 351.943 477.735, 351.715 476.232 C 351.486 474.729, 351.304 476.200, 351.310 479.500 M 351.195 492.500 C 351.215 494.150, 351.439 494.704, 351.693 493.731 C 351.947 492.758, 351.930 491.408, 351.656 490.731 C 351.382 490.054, 351.175 490.850, 351.195 492.500 M 460.898 494.281 C 457.525 496.545, 453.010 503.344, 454.134 504.467 C 454.456 504.790, 461.556 504.929, 469.911 504.777 L 485.101 504.500 482.775 500.105 C 478.591 492.197, 468.145 489.416, 460.898 494.281" stroke="none" fill="black" fill-rule="evenodd"/>
</svg>